<mxfile host="app.diagrams.net" agent="Mozilla/5.0 (Windows NT 10.0; Win64; x64) AppleWebKit/537.36 (KHTML, like Gecko) Chrome/131.0.0.0 Safari/537.36 Edg/131.0.0.0" version="24.8.3">
  <diagram name="第 1 页" id="mZlRPUlFaq0PkBegC8e1">
    <mxGraphModel dx="2878" dy="973" grid="1" gridSize="10" guides="1" tooltips="1" connect="1" arrows="1" fold="1" page="1" pageScale="1" pageWidth="1200" pageHeight="1920" math="0" shadow="0">
      <root>
        <mxCell id="0" />
        <mxCell id="1" parent="0" />
        <mxCell id="jKrubv2d-3_oXqYDTkmP-5" value="" style="rounded=0;whiteSpace=wrap;html=1;" vertex="1" parent="1">
          <mxGeometry x="-150" y="230" width="680" height="670" as="geometry" />
        </mxCell>
        <mxCell id="jKrubv2d-3_oXqYDTkmP-11" style="edgeStyle=orthogonalEdgeStyle;rounded=0;orthogonalLoop=1;jettySize=auto;html=1;" edge="1" parent="1" source="jKrubv2d-3_oXqYDTkmP-1" target="jKrubv2d-3_oXqYDTkmP-2">
          <mxGeometry relative="1" as="geometry" />
        </mxCell>
        <mxCell id="jKrubv2d-3_oXqYDTkmP-13" style="edgeStyle=orthogonalEdgeStyle;rounded=0;orthogonalLoop=1;jettySize=auto;html=1;" edge="1" parent="1" source="jKrubv2d-3_oXqYDTkmP-1" target="jKrubv2d-3_oXqYDTkmP-3">
          <mxGeometry relative="1" as="geometry" />
        </mxCell>
        <mxCell id="jKrubv2d-3_oXqYDTkmP-1" value="号码验证" style="ellipse;whiteSpace=wrap;html=1;" vertex="1" parent="1">
          <mxGeometry x="150" y="280" width="120" height="80" as="geometry" />
        </mxCell>
        <mxCell id="jKrubv2d-3_oXqYDTkmP-2" value="内线转接" style="ellipse;whiteSpace=wrap;html=1;" vertex="1" parent="1">
          <mxGeometry x="30" y="480" width="120" height="80" as="geometry" />
        </mxCell>
        <mxCell id="jKrubv2d-3_oXqYDTkmP-15" style="edgeStyle=orthogonalEdgeStyle;rounded=0;orthogonalLoop=1;jettySize=auto;html=1;" edge="1" parent="1" source="jKrubv2d-3_oXqYDTkmP-3" target="jKrubv2d-3_oXqYDTkmP-4">
          <mxGeometry relative="1" as="geometry" />
        </mxCell>
        <mxCell id="jKrubv2d-3_oXqYDTkmP-19" style="edgeStyle=orthogonalEdgeStyle;rounded=0;orthogonalLoop=1;jettySize=auto;html=1;entryX=0.5;entryY=1;entryDx=0;entryDy=0;" edge="1" parent="1" source="jKrubv2d-3_oXqYDTkmP-3" target="jKrubv2d-3_oXqYDTkmP-7">
          <mxGeometry relative="1" as="geometry">
            <Array as="points">
              <mxPoint x="330" y="620" />
              <mxPoint x="-280" y="620" />
            </Array>
          </mxGeometry>
        </mxCell>
        <mxCell id="jKrubv2d-3_oXqYDTkmP-3" value="外线转接" style="ellipse;whiteSpace=wrap;html=1;" vertex="1" parent="1">
          <mxGeometry x="270" y="480" width="120" height="80" as="geometry" />
        </mxCell>
        <mxCell id="jKrubv2d-3_oXqYDTkmP-17" style="edgeStyle=orthogonalEdgeStyle;rounded=0;orthogonalLoop=1;jettySize=auto;html=1;entryX=0.5;entryY=1;entryDx=0;entryDy=0;" edge="1" parent="1" source="jKrubv2d-3_oXqYDTkmP-4" target="jKrubv2d-3_oXqYDTkmP-8">
          <mxGeometry relative="1" as="geometry" />
        </mxCell>
        <mxCell id="jKrubv2d-3_oXqYDTkmP-4" value="账单记录" style="ellipse;whiteSpace=wrap;html=1;" vertex="1" parent="1">
          <mxGeometry x="270" y="740" width="120" height="80" as="geometry" />
        </mxCell>
        <mxCell id="jKrubv2d-3_oXqYDTkmP-6" value="程控电话系统" style="text;html=1;align=center;verticalAlign=middle;resizable=0;points=[];autosize=1;strokeColor=none;fillColor=none;" vertex="1" parent="1">
          <mxGeometry x="-120" y="200" width="100" height="30" as="geometry" />
        </mxCell>
        <mxCell id="jKrubv2d-3_oXqYDTkmP-9" style="edgeStyle=orthogonalEdgeStyle;rounded=0;orthogonalLoop=1;jettySize=auto;html=1;" edge="1" parent="1" source="jKrubv2d-3_oXqYDTkmP-7" target="jKrubv2d-3_oXqYDTkmP-1">
          <mxGeometry relative="1" as="geometry" />
        </mxCell>
        <mxCell id="jKrubv2d-3_oXqYDTkmP-7" value="用户" style="rounded=0;whiteSpace=wrap;html=1;" vertex="1" parent="1">
          <mxGeometry x="-340" y="290" width="120" height="60" as="geometry" />
        </mxCell>
        <mxCell id="jKrubv2d-3_oXqYDTkmP-8" value="外线账目系统" style="rounded=0;whiteSpace=wrap;html=1;" vertex="1" parent="1">
          <mxGeometry x="640" y="290" width="120" height="60" as="geometry" />
        </mxCell>
        <mxCell id="jKrubv2d-3_oXqYDTkmP-10" value="电话号码" style="text;html=1;align=center;verticalAlign=middle;whiteSpace=wrap;rounded=0;" vertex="1" parent="1">
          <mxGeometry x="-80" y="290" width="60" height="30" as="geometry" />
        </mxCell>
        <mxCell id="jKrubv2d-3_oXqYDTkmP-12" value="合法内线号" style="text;html=1;align=center;verticalAlign=middle;whiteSpace=wrap;rounded=0;" vertex="1" parent="1">
          <mxGeometry x="120" y="390" width="60" height="30" as="geometry" />
        </mxCell>
        <mxCell id="jKrubv2d-3_oXqYDTkmP-14" value="合法外线号" style="text;html=1;align=center;verticalAlign=middle;whiteSpace=wrap;rounded=0;" vertex="1" parent="1">
          <mxGeometry x="250" y="390" width="60" height="30" as="geometry" />
        </mxCell>
        <mxCell id="jKrubv2d-3_oXqYDTkmP-16" value="&#xa;外线通话信息&#xa;&#xa;" style="text;html=1;align=center;verticalAlign=middle;whiteSpace=wrap;rounded=0;" vertex="1" parent="1">
          <mxGeometry x="340" y="600" width="60" height="30" as="geometry" />
        </mxCell>
        <mxCell id="jKrubv2d-3_oXqYDTkmP-18" value="记录账单信息" style="text;html=1;align=center;verticalAlign=middle;whiteSpace=wrap;rounded=0;" vertex="1" parent="1">
          <mxGeometry x="580" y="720" width="60" height="30" as="geometry" />
        </mxCell>
        <mxCell id="jKrubv2d-3_oXqYDTkmP-20" value="应付费用" style="text;html=1;align=center;verticalAlign=middle;whiteSpace=wrap;rounded=0;" vertex="1" parent="1">
          <mxGeometry x="-270" y="570" width="60" height="30" as="geometry" />
        </mxCell>
      </root>
    </mxGraphModel>
  </diagram>
</mxfile>
